<mxfile host="app.diagrams.net" modified="2024-03-15T15:44:41.058Z" agent="Mozilla/5.0 (Windows NT 10.0; Win64; x64) AppleWebKit/537.36 (KHTML, like Gecko) Chrome/121.0.0.0 Safari/537.36 OPR/107.0.0.0" etag="maPCeU1ESnxmYWq6mfGQ" version="24.0.5" type="github">
  <diagram name="Page-1" id="929967ad-93f9-6ef4-fab6-5d389245f69c">
    <mxGraphModel dx="1348" dy="374" grid="1" gridSize="10" guides="1" tooltips="1" connect="1" arrows="1" fold="1" page="1" pageScale="1.5" pageWidth="1169" pageHeight="826" background="none" math="0" shadow="0">
      <root>
        <mxCell id="0" style=";html=1;" />
        <mxCell id="1" style=";html=1;" parent="0" />
        <mxCell id="1672d66443f91eb5-23" value="Base de datos MER Guía 1 (Fútbol)" style="text;strokeColor=none;fillColor=none;html=1;fontSize=24;fontStyle=1;verticalAlign=middle;align=center;" parent="1" vertex="1">
          <mxGeometry x="150" y="40" width="1510" height="40" as="geometry" />
        </mxCell>
        <mxCell id="3kxY-z6GYSi8mOqgYCUi-2" value="Jugador" style="swimlane;fontStyle=0;childLayout=stackLayout;horizontal=1;startSize=30;horizontalStack=0;resizeParent=1;resizeParentMax=0;resizeLast=0;collapsible=1;marginBottom=0;whiteSpace=wrap;html=1;" vertex="1" parent="1">
          <mxGeometry x="580" y="240" width="140" height="90" as="geometry" />
        </mxCell>
        <mxCell id="3kxY-z6GYSi8mOqgYCUi-3" value="&lt;u&gt;rut&lt;/u&gt;" style="text;strokeColor=none;fillColor=none;align=left;verticalAlign=middle;spacingLeft=4;spacingRight=4;overflow=hidden;points=[[0,0.5],[1,0.5]];portConstraint=eastwest;rotatable=0;whiteSpace=wrap;html=1;" vertex="1" parent="3kxY-z6GYSi8mOqgYCUi-2">
          <mxGeometry y="30" width="140" height="30" as="geometry" />
        </mxCell>
        <mxCell id="3kxY-z6GYSi8mOqgYCUi-4" value="fecha nacimiento" style="text;strokeColor=none;fillColor=none;align=left;verticalAlign=middle;spacingLeft=4;spacingRight=4;overflow=hidden;points=[[0,0.5],[1,0.5]];portConstraint=eastwest;rotatable=0;whiteSpace=wrap;html=1;" vertex="1" parent="3kxY-z6GYSi8mOqgYCUi-2">
          <mxGeometry y="60" width="140" height="30" as="geometry" />
        </mxCell>
        <mxCell id="3kxY-z6GYSi8mOqgYCUi-7" value="Puestos" style="swimlane;fontStyle=0;childLayout=stackLayout;horizontal=1;startSize=30;horizontalStack=0;resizeParent=1;resizeParentMax=0;resizeLast=0;collapsible=1;marginBottom=0;whiteSpace=wrap;html=1;" vertex="1" parent="1">
          <mxGeometry x="580" y="90" width="140" height="60" as="geometry" />
        </mxCell>
        <mxCell id="3kxY-z6GYSi8mOqgYCUi-8" value="&lt;u&gt;Id&lt;/u&gt;" style="text;strokeColor=none;fillColor=none;align=left;verticalAlign=middle;spacingLeft=4;spacingRight=4;overflow=hidden;points=[[0,0.5],[1,0.5]];portConstraint=eastwest;rotatable=0;whiteSpace=wrap;html=1;" vertex="1" parent="3kxY-z6GYSi8mOqgYCUi-7">
          <mxGeometry y="30" width="140" height="30" as="geometry" />
        </mxCell>
        <mxCell id="3kxY-z6GYSi8mOqgYCUi-17" value="Estadio" style="swimlane;fontStyle=0;childLayout=stackLayout;horizontal=1;startSize=30;horizontalStack=0;resizeParent=1;resizeParentMax=0;resizeLast=0;collapsible=1;marginBottom=0;whiteSpace=wrap;html=1;" vertex="1" parent="1">
          <mxGeometry x="760" y="400" width="120" height="120" as="geometry" />
        </mxCell>
        <mxCell id="3kxY-z6GYSi8mOqgYCUi-18" value="&lt;u&gt;Nombre&lt;/u&gt;" style="text;strokeColor=none;fillColor=none;align=left;verticalAlign=middle;spacingLeft=4;spacingRight=4;overflow=hidden;points=[[0,0.5],[1,0.5]];portConstraint=eastwest;rotatable=0;whiteSpace=wrap;html=1;" vertex="1" parent="3kxY-z6GYSi8mOqgYCUi-17">
          <mxGeometry y="30" width="120" height="30" as="geometry" />
        </mxCell>
        <mxCell id="3kxY-z6GYSi8mOqgYCUi-19" value="capacidad del estadio" style="text;strokeColor=none;fillColor=none;align=left;verticalAlign=middle;spacingLeft=4;spacingRight=4;overflow=hidden;points=[[0,0.5],[1,0.5]];portConstraint=eastwest;rotatable=0;whiteSpace=wrap;html=1;" vertex="1" parent="3kxY-z6GYSi8mOqgYCUi-17">
          <mxGeometry y="60" width="120" height="30" as="geometry" />
        </mxCell>
        <mxCell id="3kxY-z6GYSi8mOqgYCUi-20" value="ciudad" style="text;strokeColor=none;fillColor=none;align=left;verticalAlign=middle;spacingLeft=4;spacingRight=4;overflow=hidden;points=[[0,0.5],[1,0.5]];portConstraint=eastwest;rotatable=0;whiteSpace=wrap;html=1;" vertex="1" parent="3kxY-z6GYSi8mOqgYCUi-17">
          <mxGeometry y="90" width="120" height="30" as="geometry" />
        </mxCell>
        <mxCell id="3kxY-z6GYSi8mOqgYCUi-24" value="se juega" style="rhombus;whiteSpace=wrap;html=1;" vertex="1" parent="1">
          <mxGeometry x="920" y="420" width="80" height="80" as="geometry" />
        </mxCell>
        <mxCell id="3kxY-z6GYSi8mOqgYCUi-27" value="" style="endArrow=none;html=1;rounded=0;entryX=0.442;entryY=1.098;entryDx=0;entryDy=0;entryPerimeter=0;" edge="1" parent="1" target="3kxY-z6GYSi8mOqgYCUi-38">
          <mxGeometry width="50" height="50" relative="1" as="geometry">
            <mxPoint x="960" y="420" as="sourcePoint" />
            <mxPoint x="961.18" y="355.06999999999994" as="targetPoint" />
          </mxGeometry>
        </mxCell>
        <mxCell id="3kxY-z6GYSi8mOqgYCUi-29" value="0.N" style="edgeLabel;html=1;align=center;verticalAlign=middle;resizable=0;points=[];" vertex="1" connectable="0" parent="3kxY-z6GYSi8mOqgYCUi-27">
          <mxGeometry x="0.597" y="1" relative="1" as="geometry">
            <mxPoint as="offset" />
          </mxGeometry>
        </mxCell>
        <mxCell id="3kxY-z6GYSi8mOqgYCUi-28" value="" style="endArrow=none;html=1;rounded=0;exitX=1.022;exitY=-0.044;exitDx=0;exitDy=0;exitPerimeter=0;" edge="1" parent="1" source="3kxY-z6GYSi8mOqgYCUi-19">
          <mxGeometry width="50" height="50" relative="1" as="geometry">
            <mxPoint x="890" y="457" as="sourcePoint" />
            <mxPoint x="920" y="457" as="targetPoint" />
          </mxGeometry>
        </mxCell>
        <mxCell id="3kxY-z6GYSi8mOqgYCUi-30" value="1.1" style="edgeLabel;html=1;align=center;verticalAlign=middle;resizable=0;points=[];" vertex="1" connectable="0" parent="3kxY-z6GYSi8mOqgYCUi-28">
          <mxGeometry x="-0.6555" relative="1" as="geometry">
            <mxPoint as="offset" />
          </mxGeometry>
        </mxCell>
        <mxCell id="3kxY-z6GYSi8mOqgYCUi-36" value="Partido" style="swimlane;fontStyle=0;childLayout=stackLayout;horizontal=1;startSize=30;horizontalStack=0;resizeParent=1;resizeParentMax=0;resizeLast=0;collapsible=1;marginBottom=0;whiteSpace=wrap;html=1;" vertex="1" parent="1">
          <mxGeometry x="900" y="260" width="140" height="90" as="geometry" />
        </mxCell>
        <mxCell id="3kxY-z6GYSi8mOqgYCUi-37" value="&lt;u&gt;fecha del partido&lt;/u&gt;" style="text;strokeColor=none;fillColor=none;align=left;verticalAlign=middle;spacingLeft=4;spacingRight=4;overflow=hidden;points=[[0,0.5],[1,0.5]];portConstraint=eastwest;rotatable=0;whiteSpace=wrap;html=1;" vertex="1" parent="3kxY-z6GYSi8mOqgYCUi-36">
          <mxGeometry y="30" width="140" height="30" as="geometry" />
        </mxCell>
        <mxCell id="3kxY-z6GYSi8mOqgYCUi-38" value="goles marcados" style="text;strokeColor=none;fillColor=none;align=left;verticalAlign=middle;spacingLeft=4;spacingRight=4;overflow=hidden;points=[[0,0.5],[1,0.5]];portConstraint=eastwest;rotatable=0;whiteSpace=wrap;html=1;" vertex="1" parent="3kxY-z6GYSi8mOqgYCUi-36">
          <mxGeometry y="60" width="140" height="30" as="geometry" />
        </mxCell>
        <mxCell id="3kxY-z6GYSi8mOqgYCUi-40" value="Arbitro" style="swimlane;fontStyle=0;childLayout=stackLayout;horizontal=1;startSize=30;horizontalStack=0;resizeParent=1;resizeParentMax=0;resizeLast=0;collapsible=1;marginBottom=0;whiteSpace=wrap;html=1;" vertex="1" parent="1">
          <mxGeometry x="1220" y="260" width="140" height="120" as="geometry" />
        </mxCell>
        <mxCell id="3kxY-z6GYSi8mOqgYCUi-41" value="&lt;u&gt;Rut&lt;/u&gt;" style="text;strokeColor=none;fillColor=none;align=left;verticalAlign=middle;spacingLeft=4;spacingRight=4;overflow=hidden;points=[[0,0.5],[1,0.5]];portConstraint=eastwest;rotatable=0;whiteSpace=wrap;html=1;" vertex="1" parent="3kxY-z6GYSi8mOqgYCUi-40">
          <mxGeometry y="30" width="140" height="30" as="geometry" />
        </mxCell>
        <mxCell id="3kxY-z6GYSi8mOqgYCUi-42" value="nombre" style="text;strokeColor=none;fillColor=none;align=left;verticalAlign=middle;spacingLeft=4;spacingRight=4;overflow=hidden;points=[[0,0.5],[1,0.5]];portConstraint=eastwest;rotatable=0;whiteSpace=wrap;html=1;" vertex="1" parent="3kxY-z6GYSi8mOqgYCUi-40">
          <mxGeometry y="60" width="140" height="30" as="geometry" />
        </mxCell>
        <mxCell id="3kxY-z6GYSi8mOqgYCUi-43" value="ciudad de residencia" style="text;strokeColor=none;fillColor=none;align=left;verticalAlign=middle;spacingLeft=4;spacingRight=4;overflow=hidden;points=[[0,0.5],[1,0.5]];portConstraint=eastwest;rotatable=0;whiteSpace=wrap;html=1;" vertex="1" parent="3kxY-z6GYSi8mOqgYCUi-40">
          <mxGeometry y="90" width="140" height="30" as="geometry" />
        </mxCell>
        <mxCell id="3kxY-z6GYSi8mOqgYCUi-44" value="" style="endArrow=none;html=1;rounded=0;entryX=-0.01;entryY=0.073;entryDx=0;entryDy=0;entryPerimeter=0;exitX=1;exitY=0.5;exitDx=0;exitDy=0;" edge="1" parent="1" source="3kxY-z6GYSi8mOqgYCUi-45" target="3kxY-z6GYSi8mOqgYCUi-42">
          <mxGeometry width="50" height="50" relative="1" as="geometry">
            <mxPoint x="1150" y="320" as="sourcePoint" />
            <mxPoint x="1220" y="350" as="targetPoint" />
          </mxGeometry>
        </mxCell>
        <mxCell id="3kxY-z6GYSi8mOqgYCUi-51" value="4.4" style="edgeLabel;html=1;align=center;verticalAlign=middle;resizable=0;points=[];" vertex="1" connectable="0" parent="3kxY-z6GYSi8mOqgYCUi-44">
          <mxGeometry x="0.7029" y="1" relative="1" as="geometry">
            <mxPoint as="offset" />
          </mxGeometry>
        </mxCell>
        <mxCell id="3kxY-z6GYSi8mOqgYCUi-45" value="asignado" style="rhombus;whiteSpace=wrap;html=1;" vertex="1" parent="1">
          <mxGeometry x="1090" y="270" width="80" height="80" as="geometry" />
        </mxCell>
        <mxCell id="3kxY-z6GYSi8mOqgYCUi-46" value="" style="endArrow=none;html=1;rounded=0;exitX=1;exitY=0.667;exitDx=0;exitDy=0;exitPerimeter=0;entryX=0;entryY=0.5;entryDx=0;entryDy=0;" edge="1" parent="1" source="3kxY-z6GYSi8mOqgYCUi-37" target="3kxY-z6GYSi8mOqgYCUi-45">
          <mxGeometry width="50" height="50" relative="1" as="geometry">
            <mxPoint x="1170" y="400" as="sourcePoint" />
            <mxPoint x="1090" y="320" as="targetPoint" />
          </mxGeometry>
        </mxCell>
        <mxCell id="3kxY-z6GYSi8mOqgYCUi-50" value="1.1" style="edgeLabel;html=1;align=center;verticalAlign=middle;resizable=0;points=[];" vertex="1" connectable="0" parent="3kxY-z6GYSi8mOqgYCUi-46">
          <mxGeometry x="-0.5682" y="1" relative="1" as="geometry">
            <mxPoint as="offset" />
          </mxGeometry>
        </mxCell>
        <mxCell id="3kxY-z6GYSi8mOqgYCUi-52" value="" style="endArrow=none;html=1;rounded=0;exitX=0;exitY=0.5;exitDx=0;exitDy=0;edgeStyle=orthogonalEdgeStyle;entryX=0.5;entryY=0;entryDx=0;entryDy=0;" edge="1" parent="1" target="3kxY-z6GYSi8mOqgYCUi-63">
          <mxGeometry width="50" height="50" relative="1" as="geometry">
            <mxPoint x="580" y="125" as="sourcePoint" />
            <mxPoint x="530" y="170" as="targetPoint" />
          </mxGeometry>
        </mxCell>
        <mxCell id="3kxY-z6GYSi8mOqgYCUi-65" value="1.N" style="edgeLabel;html=1;align=center;verticalAlign=middle;resizable=0;points=[];" vertex="1" connectable="0" parent="3kxY-z6GYSi8mOqgYCUi-52">
          <mxGeometry x="-0.8414" y="-5" relative="1" as="geometry">
            <mxPoint as="offset" />
          </mxGeometry>
        </mxCell>
        <mxCell id="3kxY-z6GYSi8mOqgYCUi-61" value="" style="endArrow=none;html=1;rounded=0;edgeStyle=orthogonalEdgeStyle;entryX=0.5;entryY=1;entryDx=0;entryDy=0;" edge="1" parent="1" target="3kxY-z6GYSi8mOqgYCUi-63">
          <mxGeometry width="50" height="50" relative="1" as="geometry">
            <mxPoint x="580" y="296" as="sourcePoint" />
            <mxPoint x="530" y="220" as="targetPoint" />
          </mxGeometry>
        </mxCell>
        <mxCell id="3kxY-z6GYSi8mOqgYCUi-64" value="1.1" style="edgeLabel;html=1;align=center;verticalAlign=middle;resizable=0;points=[];" vertex="1" connectable="0" parent="3kxY-z6GYSi8mOqgYCUi-61">
          <mxGeometry x="-0.7904" y="3" relative="1" as="geometry">
            <mxPoint as="offset" />
          </mxGeometry>
        </mxCell>
        <mxCell id="3kxY-z6GYSi8mOqgYCUi-63" value="actua" style="rhombus;whiteSpace=wrap;html=1;" vertex="1" parent="1">
          <mxGeometry x="470" y="170" width="80" height="80" as="geometry" />
        </mxCell>
        <mxCell id="3kxY-z6GYSi8mOqgYCUi-66" value="" style="endArrow=none;html=1;rounded=0;exitX=1;exitY=0.5;exitDx=0;exitDy=0;" edge="1" parent="1" source="3kxY-z6GYSi8mOqgYCUi-3" target="3kxY-z6GYSi8mOqgYCUi-67">
          <mxGeometry width="50" height="50" relative="1" as="geometry">
            <mxPoint x="690" y="260" as="sourcePoint" />
            <mxPoint x="760" y="230" as="targetPoint" />
          </mxGeometry>
        </mxCell>
        <mxCell id="3kxY-z6GYSi8mOqgYCUi-71" value="n" style="edgeLabel;html=1;align=center;verticalAlign=middle;resizable=0;points=[];" vertex="1" connectable="0" parent="3kxY-z6GYSi8mOqgYCUi-66">
          <mxGeometry x="-0.4973" relative="1" as="geometry">
            <mxPoint x="-1" y="1" as="offset" />
          </mxGeometry>
        </mxCell>
        <mxCell id="3kxY-z6GYSi8mOqgYCUi-67" value="interviene" style="rhombus;whiteSpace=wrap;html=1;" vertex="1" parent="1">
          <mxGeometry x="760" y="190" width="80" height="80" as="geometry" />
        </mxCell>
        <mxCell id="3kxY-z6GYSi8mOqgYCUi-69" value="" style="endArrow=none;html=1;rounded=0;exitX=1;exitY=0.5;exitDx=0;exitDy=0;" edge="1" parent="1" source="3kxY-z6GYSi8mOqgYCUi-8" target="3kxY-z6GYSi8mOqgYCUi-67">
          <mxGeometry width="50" height="50" relative="1" as="geometry">
            <mxPoint x="760" y="170" as="sourcePoint" />
            <mxPoint x="810" y="120" as="targetPoint" />
          </mxGeometry>
        </mxCell>
        <mxCell id="3kxY-z6GYSi8mOqgYCUi-73" value="1.1" style="edgeLabel;html=1;align=center;verticalAlign=middle;resizable=0;points=[];" vertex="1" connectable="0" parent="3kxY-z6GYSi8mOqgYCUi-69">
          <mxGeometry x="-0.6737" y="-1" relative="1" as="geometry">
            <mxPoint as="offset" />
          </mxGeometry>
        </mxCell>
        <mxCell id="3kxY-z6GYSi8mOqgYCUi-70" value="" style="endArrow=none;html=1;rounded=0;entryX=0;entryY=0.5;entryDx=0;entryDy=0;" edge="1" parent="1" source="3kxY-z6GYSi8mOqgYCUi-67" target="3kxY-z6GYSi8mOqgYCUi-37">
          <mxGeometry width="50" height="50" relative="1" as="geometry">
            <mxPoint x="830" y="290" as="sourcePoint" />
            <mxPoint x="880" y="240" as="targetPoint" />
          </mxGeometry>
        </mxCell>
        <mxCell id="3kxY-z6GYSi8mOqgYCUi-72" value="1.1" style="edgeLabel;html=1;align=center;verticalAlign=middle;resizable=0;points=[];" vertex="1" connectable="0" parent="3kxY-z6GYSi8mOqgYCUi-70">
          <mxGeometry x="0.7138" relative="1" as="geometry">
            <mxPoint as="offset" />
          </mxGeometry>
        </mxCell>
        <mxCell id="3kxY-z6GYSi8mOqgYCUi-74" value="" style="endArrow=none;html=1;rounded=0;entryX=0;entryY=0;entryDx=0;entryDy=0;exitX=1;exitY=1;exitDx=0;exitDy=0;" edge="1" parent="1" source="3kxY-z6GYSi8mOqgYCUi-79" target="3kxY-z6GYSi8mOqgYCUi-45">
          <mxGeometry width="50" height="50" relative="1" as="geometry">
            <mxPoint x="1030" y="200" as="sourcePoint" />
            <mxPoint x="930" y="310" as="targetPoint" />
          </mxGeometry>
        </mxCell>
        <mxCell id="3kxY-z6GYSi8mOqgYCUi-75" value="" style="endArrow=none;html=1;rounded=0;entryX=0.5;entryY=0;entryDx=0;entryDy=0;exitX=0.5;exitY=1;exitDx=0;exitDy=0;" edge="1" parent="1" source="3kxY-z6GYSi8mOqgYCUi-81" target="3kxY-z6GYSi8mOqgYCUi-45">
          <mxGeometry width="50" height="50" relative="1" as="geometry">
            <mxPoint x="1180" y="150" as="sourcePoint" />
            <mxPoint x="930" y="310" as="targetPoint" />
          </mxGeometry>
        </mxCell>
        <mxCell id="3kxY-z6GYSi8mOqgYCUi-76" value="" style="endArrow=none;html=1;rounded=0;entryX=1;entryY=0;entryDx=0;entryDy=0;exitX=0;exitY=1;exitDx=0;exitDy=0;" edge="1" parent="1" source="3kxY-z6GYSi8mOqgYCUi-82" target="3kxY-z6GYSi8mOqgYCUi-45">
          <mxGeometry width="50" height="50" relative="1" as="geometry">
            <mxPoint x="1250" y="190" as="sourcePoint" />
            <mxPoint x="930" y="310" as="targetPoint" />
          </mxGeometry>
        </mxCell>
        <mxCell id="3kxY-z6GYSi8mOqgYCUi-77" value="" style="endArrow=none;html=1;rounded=0;entryX=0.5;entryY=0;entryDx=0;entryDy=0;exitX=1;exitY=1;exitDx=0;exitDy=0;" edge="1" parent="1" source="3kxY-z6GYSi8mOqgYCUi-80" target="3kxY-z6GYSi8mOqgYCUi-45">
          <mxGeometry width="50" height="50" relative="1" as="geometry">
            <mxPoint x="1060" y="150" as="sourcePoint" />
            <mxPoint x="930" y="310" as="targetPoint" />
          </mxGeometry>
        </mxCell>
        <mxCell id="3kxY-z6GYSi8mOqgYCUi-79" value="principal" style="ellipse;whiteSpace=wrap;html=1;aspect=fixed;" vertex="1" parent="1">
          <mxGeometry x="970" y="170" width="50" height="50" as="geometry" />
        </mxCell>
        <mxCell id="3kxY-z6GYSi8mOqgYCUi-80" value="borde" style="ellipse;whiteSpace=wrap;html=1;aspect=fixed;" vertex="1" parent="1">
          <mxGeometry x="1030" y="130" width="50" height="50" as="geometry" />
        </mxCell>
        <mxCell id="3kxY-z6GYSi8mOqgYCUi-81" value="asistente" style="ellipse;whiteSpace=wrap;html=1;aspect=fixed;" vertex="1" parent="1">
          <mxGeometry x="1120" y="110" width="60" height="60" as="geometry" />
        </mxCell>
        <mxCell id="3kxY-z6GYSi8mOqgYCUi-82" value="asistente" style="ellipse;whiteSpace=wrap;html=1;aspect=fixed;" vertex="1" parent="1">
          <mxGeometry x="1190" y="130" width="65" height="65" as="geometry" />
        </mxCell>
      </root>
    </mxGraphModel>
  </diagram>
</mxfile>
